<svg width="39" height="41" viewBox="0 0 39 41" fill="none" xmlns="http://www.w3.org/2000/svg">
<path d="M11.7108 40.5C10.6373 40.5 9.71835 40.1083 8.9539 39.325C8.18944 38.5417 7.80721 37.6 7.80721 36.5C7.80721 35.4 8.18944 34.4583 8.9539 33.675C9.71835 32.8917 10.6373 32.5 11.7108 32.5C12.7843 32.5 13.7033 32.8917 14.4677 33.675C15.2322 34.4583 15.6144 35.4 15.6144 36.5C15.6144 37.6 15.2322 38.5417 14.4677 39.325C13.7033 40.1083 12.7843 40.5 11.7108 40.5ZM31.2289 40.5C30.1554 40.5 29.2364 40.1083 28.4719 39.325C27.7075 38.5417 27.3252 37.6 27.3252 36.5C27.3252 35.4 27.7075 34.4583 28.4719 33.675C29.2364 32.8917 30.1554 32.5 31.2289 32.5C32.3023 32.5 33.2213 32.8917 33.9858 33.675C34.7502 34.4583 35.1325 35.4 35.1325 36.5C35.1325 37.6 34.7502 38.5417 33.9858 39.325C33.2213 40.1083 32.3023 40.5 31.2289 40.5ZM10.0518 8.5L14.7361 18.5H28.3987L33.7662 8.5H10.0518ZM8.19757 4.5H36.9867C37.7349 4.5 38.3041 4.84167 38.6945 5.525C39.0849 6.20833 39.1011 6.9 38.7433 7.6L31.8144 20.4C31.4566 21.0667 30.9767 21.5833 30.3749 21.95C29.7731 22.3167 29.1144 22.5 28.3987 22.5H13.8578L11.7108 26.5H35.1325V30.5H11.7108C10.247 30.5 9.14094 29.8417 8.39275 28.525C7.64456 27.2083 7.61203 25.9 8.29516 24.6L10.9301 19.7L3.90361 4.5H0V0.5H6.34336L8.19757 4.5Z" fill="#E3E3E3"/>
</svg>
