<svg width="40" height="41" viewBox="0 0 40 41" fill="none" xmlns="http://www.w3.org/2000/svg">
<path d="M36.8889 40.82L22.8889 26.596C21.7778 27.4991 20.5 28.2141 19.0556 28.7409C17.6111 29.2677 16.0741 29.5311 14.4444 29.5311C10.4074 29.5311 6.99074 28.1106 4.19444 25.2695C1.39815 22.4285 0 18.9572 0 14.8555C0 10.7539 1.39815 7.28259 4.19444 4.44155C6.99074 1.60051 10.4074 0.179993 14.4444 0.179993C18.4815 0.179993 21.8981 1.60051 24.6944 4.44155C27.4907 7.28259 28.8889 10.7539 28.8889 14.8555C28.8889 16.5113 28.6296 18.0729 28.1111 19.5404C27.5926 21.008 26.8889 22.3062 26 23.4351L40 37.6591L36.8889 40.82ZM14.4444 25.0155C17.2222 25.0155 19.5833 24.0278 21.5278 22.0522C23.4722 20.0767 24.4444 17.6778 24.4444 14.8555C24.4444 12.0333 23.4722 9.63444 21.5278 7.65888C19.5833 5.68333 17.2222 4.69555 14.4444 4.69555C11.6667 4.69555 9.30556 5.68333 7.36111 7.65888C5.41667 9.63444 4.44444 12.0333 4.44444 14.8555C4.44444 17.6778 5.41667 20.0767 7.36111 22.0522C9.30556 24.0278 11.6667 25.0155 14.4444 25.0155Z" fill="#E3E3E3"/>
</svg>
